<?xml version="1.0" standalone="no"?>
<!DOCTYPE svg PUBLIC "-//W3C//DTD SVG 20010904//EN"
 "http://www.w3.org/TR/2001/REC-SVG-20010904/DTD/svg10.dtd">
<svg version="1.0" xmlns="http://www.w3.org/2000/svg"
 width="512.000000pt" height="512.000000pt" viewBox="0 0 512.000000 512.000000"
 preserveAspectRatio="xMidYMid meet">
<metadata>
Created by potrace 1.14, written by Peter Selinger 2001-2017
</metadata>
<g transform="translate(0.000000,512.000000) scale(0.100000,-0.100000)"
fill="#000000" stroke="none">
<path d="M2250 4690 c-171 -15 -395 -77 -544 -152 -104 -52 -245 -140 -273
-170 -37 -40 -34 -82 7 -103 39 -20 57 -14 139 45 223 159 503 250 773 250
l106 0 81 57 c44 32 77 61 73 65 -12 12 -256 17 -362 8z"/>
<path d="M2975 4615 c-183 -41 -319 -120 -464 -268 -110 -113 -199 -259 -269
-442 -114 -301 -254 -702 -352 -1015 -65 -206 -335 -1036 -352 -1083 -12 -32
-10 -32 -156 -6 -241 43 -340 60 -437 75 -55 8 -118 19 -140 24 -22 5 -75 13
-118 19 -105 15 -137 -1 -137 -66 0 -35 20 -60 53 -68 12 -2 54 -12 92 -20
179 -41 486 -98 725 -136 549 -87 800 -158 1042 -295 l96 -54 62 36 c187 109
457 199 793 264 100 19 141 26 512 90 233 40 574 108 603 120 52 23 53 98 1
125 -27 14 -38 14 -117 0 -48 -8 -132 -22 -187 -31 -55 -8 -118 -19 -140 -24
-22 -5 -85 -16 -140 -24 -55 -9 -149 -25 -210 -36 -60 -11 -117 -20 -126 -20
-11 0 -21 19 -32 60 -10 33 -17 62 -17 65 0 3 39 24 87 47 430 209 702 671
680 1153 -7 159 -31 281 -60 313 -28 30 -73 26 -99 -9 -19 -25 -19 -29 -3
-105 50 -241 22 -501 -78 -717 -93 -201 -297 -415 -492 -514 -261 -134 -582
-213 -867 -213 -82 0 -88 1 -107 26 -28 35 -26 69 4 99 21 22 33 25 102 25
233 0 609 89 712 169 l23 18 -40 124 c-22 68 -68 212 -102 319 -34 107 -88
278 -120 380 -138 435 -150 483 -150 606 0 160 43 276 135 363 127 120 277
142 442 64 149 -70 252 -248 241 -414 -7 -92 -47 -173 -106 -214 -37 -25 -53
-30 -106 -30 -54 0 -68 4 -100 29 -70 53 -81 125 -29 186 20 25 32 30 68 30
49 0 75 19 75 53 0 52 -60 97 -130 97 -76 0 -155 -59 -200 -150 -71 -140 23
-337 190 -400 85 -32 200 -26 285 15 127 60 224 196 252 350 28 156 -18 397
-104 545 -64 110 -197 254 -303 327 -101 69 -238 123 -360 143 -89 14 -252 11
-325 -5z m-358 -1845 c42 -86 46 -90 103 -90 113 0 134 -50 49 -114 l-52 -38
7 -78 c3 -43 3 -85 0 -94 -9 -24 -38 -20 -104 15 l-59 31 -64 -33 c-93 -47
-101 -41 -93 69 l6 87 -46 35 c-25 19 -50 43 -55 52 -21 39 22 68 100 68 57 0
67 9 106 98 37 84 58 82 102 -8z"/>
<path d="M682 4573 c-5 -10 -15 -34 -21 -54 -11 -36 -29 -49 -86 -67 -22 -6
-30 -15 -30 -32 0 -20 7 -26 42 -35 52 -12 68 -28 85 -80 16 -49 46 -54 65
-12 7 15 19 39 26 54 9 21 22 29 49 34 20 3 44 11 52 18 21 18 5 47 -31 56
-49 11 -71 33 -88 85 -18 53 -45 67 -63 33z"/>
<path d="M1141 4243 c-18 -16 -76 -160 -116 -291 -7 -24 -21 -54 -29 -67 l-16
-25 -196 0 c-194 0 -195 0 -219 -25 -29 -28 -32 -65 -7 -93 9 -11 81 -70 159
-132 78 -61 143 -118 145 -127 2 -8 -20 -85 -49 -171 -29 -87 -52 -170 -53
-185 0 -40 40 -77 83 -77 36 0 40 2 214 129 48 35 97 68 109 73 25 12 67 -9
159 -78 133 -99 174 -124 205 -124 37 0 80 39 80 72 0 13 -24 97 -54 188 -30
90 -52 169 -49 176 4 11 69 65 251 208 61 48 72 62 72 87 0 45 -39 79 -92 80
-24 0 -111 1 -195 2 -83 1 -153 4 -155 7 -16 21 -110 264 -122 313 -9 38 -49
77 -79 77 -14 0 -34 -8 -46 -17z"/>
<path d="M4601 3641 c-6 -11 -11 -26 -11 -34 0 -26 -35 -58 -70 -66 -47 -9
-55 -47 -13 -57 15 -3 35 -8 44 -10 9 -3 26 -27 38 -55 25 -62 47 -62 70 1 14
38 22 47 60 60 60 20 62 36 8 59 -50 21 -57 30 -72 81 -12 40 -39 50 -54 21z"/>
<path d="M3692 2843 c-5 -10 -13 -32 -16 -49 -9 -39 -30 -59 -81 -76 -60 -20
-59 -67 1 -68 36 0 73 -38 80 -81 12 -72 65 -71 78 2 8 45 28 64 84 78 51 14
59 46 15 61 -62 22 -77 36 -98 90 -22 57 -47 74 -63 43z"/>
<path d="M1281 2828 c-5 -13 -12 -37 -15 -55 -6 -27 -15 -35 -54 -49 -91 -34
-95 -54 -15 -80 58 -20 61 -23 77 -95 8 -37 36 -46 58 -19 10 12 18 32 18 44
0 31 33 63 72 71 62 14 78 48 31 66 -90 35 -91 37 -105 86 -10 37 -19 49 -36
51 -15 2 -25 -3 -31 -20z"/>
<path d="M690 2717 c-8 -17 -24 -34 -35 -35 -11 -2 -24 -8 -29 -13 -13 -12 12
-39 36 -39 12 0 23 -11 29 -30 14 -38 37 -39 50 -2 6 17 21 32 39 39 39 15 38
29 -4 47 -23 10 -35 22 -38 38 -5 35 -31 33 -48 -5z"/>
<path d="M880 1524 c-36 -43 -91 -108 -123 -143 -32 -35 -56 -65 -55 -66 2 -1
59 5 128 13 189 23 686 22 853 -2 341 -47 640 -160 817 -307 l61 -50 32 28
c181 159 497 280 857 328 198 27 575 30 798 8 100 -11 182 -17 182 -15 0 2
-42 49 -92 104 -51 56 -109 119 -129 141 l-36 40 -99 -13 c-54 -6 -105 -14
-112 -16 -8 -2 0 -20 24 -51 l37 -48 -224 -6 c-235 -6 -269 -9 -440 -39 -288
-51 -567 -150 -727 -259 -33 -22 -66 -41 -72 -41 -6 0 -39 19 -72 41 -130 88
-309 163 -523 219 -213 55 -384 75 -695 79 -85 1 -155 3 -157 4 -1 2 11 23 27
47 16 24 27 47 25 50 -2 4 -33 10 -67 13 -35 3 -83 9 -108 13 l-46 6 -64 -78z"/>
<path d="M910 1200 c-63 -5 -180 -16 -260 -25 -166 -18 -127 5 -340 -200 -280
-270 -270 -259 -270 -292 0 -19 9 -38 25 -53 28 -27 65 -28 220 -10 291 34
456 52 637 70 502 48 836 82 993 100 94 10 206 21 250 25 l80 5 42 -54 c32
-41 60 -63 110 -88 61 -30 76 -33 158 -33 49 0 109 6 132 13 54 16 120 66 158
120 l30 43 85 -6 c47 -3 166 -14 265 -25 99 -10 272 -28 385 -40 534 -54 915
-95 1090 -115 69 -8 171 -18 228 -21 98 -7 104 -6 127 16 16 15 25 34 25 54 0
26 -16 46 -102 129 -57 55 -159 155 -228 223 l-126 124 -199 22 c-270 29 -827
32 -1006 5 -319 -48 -558 -136 -696 -259 -79 -69 -112 -88 -155 -88 -54 0 -74
11 -161 83 -155 129 -348 204 -657 257 -104 18 -176 22 -425 25 -165 2 -352 0
-415 -5z m779 -174 c30 -32 22 -69 -16 -84 -16 -6 -116 -13 -223 -16 -164 -4
-221 -10 -358 -37 -185 -36 -212 -33 -212 20 0 16 6 36 14 44 16 15 146 48
286 72 130 22 134 22 316 24 169 1 171 1 193 -23z m2206 4 c156 -25 294 -58
323 -76 40 -26 19 -94 -30 -94 -11 0 -77 11 -146 25 -148 29 -312 45 -467 45
-126 0 -155 11 -155 60 0 52 25 60 200 60 106 0 193 -6 275 -20z"/>
</g>
</svg>
